<svg xmlns="http://www.w3.org/2000/svg" role="img" viewBox="-7.19 30.31 412.88 183.38"><title>Zephyr_DevSummit22_PromoGraphics_Logo-White (2).svg</title><style>svg {enable-background:new 0 0 400 245}</style><style>.st0{fill:#fff}</style><path d="M285.4 134.8c0 1.9-.2 3.5-.7 4.9-.4 1.3-1.1 2.4-2 3.3-.9.8-2 1.4-3.4 1.8-1.4.4-3 .6-4.8.6h-5.2v11.1h-3.1V125h8.7c3.6 0 6.3.8 7.9 2.4 1.7 1.6 2.6 4.1 2.6 7.4zm-3.3.1c0-1.4-.2-2.5-.5-3.4-.3-.9-.8-1.6-1.5-2.2-.6-.5-1.4-.9-2.4-1.2-.9-.2-2-.4-3.2-.4h-5.3v14.8h4.7c1.4 0 2.6-.1 3.6-.3 1-.2 1.9-.6 2.5-1.2.7-.6 1.1-1.3 1.5-2.3.4-1.1.6-2.3.6-3.8zm20.9.6c-.5-.2-1.1-.3-1.7-.3-.7 0-1.4.1-2 .3-.6.2-1.2.5-1.8.8-.6.4-1.2.8-1.8 1.4-.6.5-1.3 1.2-2 1.9v16.9h-2.9v-23.8h2.9v4.1l1.9-1.9c.6-.6 1.2-1 1.8-1.4.6-.4 1.2-.7 1.9-.9.6-.2 1.3-.3 2-.3.4 0 .8 0 1.2.1.4.1.7.2 1 .4l-.5 2.7zm22.8 9c0 1.9-.2 3.6-.5 5.1-.4 1.5-.9 2.9-1.7 4-.8 1.1-1.8 2-3.1 2.6-1.3.6-2.8.9-4.6.9-1.8 0-3.3-.3-4.6-.9-1.3-.6-2.3-1.4-3.1-2.6-.8-1.1-1.4-2.4-1.8-4-.4-1.5-.6-3.3-.6-5.1 0-1.8.2-3.5.5-5.1.4-1.6.9-2.9 1.7-4 .8-1.1 1.8-2 3.1-2.6 1.3-.6 2.8-.9 4.6-.9 1.8 0 3.3.3 4.6.9 1.3.6 2.3 1.4 3.1 2.6.8 1.1 1.4 2.4 1.8 4 .4 1.5.6 3.2.6 5.1zm-3.1 0c0-1.6-.1-3-.4-4.3-.2-1.3-.6-2.3-1.2-3.2-.5-.9-1.3-1.5-2.1-2-.9-.4-2-.7-3.3-.7-1.3 0-2.4.2-3.3.7-.9.5-1.6 1.1-2.2 2-.6.9-1 1.9-1.2 3.2-.2 1.2-.4 2.7-.4 4.2 0 1.6.1 3 .4 4.2.2 1.2.7 2.3 1.2 3.2.6.9 1.3 1.5 2.2 2 .9.5 2 .7 3.3.7 1.3 0 2.3-.2 3.2-.7.9-.4 1.6-1.1 2.2-2 .6-.9 1-1.9 1.2-3.2.3-1.1.4-2.5.4-4.1zm12.2 13.1c0 1.3-.1 2.4-.3 3.4-.2 1-.6 1.8-1 2.4-.5.6-1.2 1.1-2 1.4-.8.3-1.9.5-3.1.5-.6 0-1.3-.1-2-.2s-1.4-.3-2.1-.5l.7-2.4c.5.2 1.1.4 1.7.5.6.1 1.2.2 1.8.2.7 0 1.2-.1 1.6-.3.4-.2.8-.5 1-1 .3-.5.4-1 .6-1.7.1-.7.2-1.5.2-2.5v-24.8h2.9v25zm.6-30.8c0 .8-.2 1.3-.5 1.6-.3.3-.9.4-1.6.4-.8 0-1.4-.2-1.6-.5-.3-.3-.4-.8-.4-1.5s.2-1.2.5-1.5c.3-.3.9-.5 1.6-.5.8 0 1.3.2 1.6.5.3.3.4.8.4 1.5zm8.4 17.7c0 1.7.1 3.2.3 4.5.2 1.3.6 2.3 1.1 3.1.5.8 1.2 1.4 2.1 1.8.9.4 1.9.6 3.2.6.6 0 1.2-.1 1.7-.2s1-.3 1.5-.6.9-.6 1.3-1 .8-.9 1.2-1.5l2.3 1.5c-.4.7-.9 1.3-1.4 1.8-.5.5-1.1 1-1.7 1.3-.7.4-1.4.6-2.2.8-.8.2-1.8.3-2.9.3-1.6 0-3-.2-4.2-.7-1.2-.5-2.2-1.2-3-2.2-.8-1-1.4-2.3-1.8-3.8-.4-1.6-.6-3.5-.6-5.7 0-2 .2-3.8.5-5.4.3-1.6.9-2.9 1.7-4 .8-1.1 1.8-1.9 3-2.5 1.2-.6 2.7-.9 4.5-.9 1.5 0 2.9.2 4 .7 1.1.5 2 1.2 2.7 2.1.7.9 1.2 2 1.6 3.4.3 1.3.5 2.8.5 4.5v1.9h-15.4zm12.5-2.4c0-2.7-.5-4.6-1.5-5.9s-2.4-1.9-4.5-1.9c-1 0-1.9.2-2.7.5-.8.3-1.4.8-1.9 1.4-.5.6-.9 1.4-1.2 2.4-.3 1-.5 2.1-.6 3.5h12.4zm25.3 10.5c-.4.7-.8 1.3-1.3 1.9-.5.6-1.1 1-1.7 1.4-.7.4-1.4.7-2.3.9-.8.2-1.8.3-2.8.3-1.9 0-3.4-.3-4.7-1-1.3-.6-2.3-1.5-3.1-2.6-.8-1.1-1.3-2.4-1.7-4-.3-1.5-.5-3.2-.5-5 0-1.9.2-3.7.6-5.3.4-1.6 1-2.9 1.7-4 .8-1.1 1.8-1.9 3.1-2.5 1.2-.6 2.8-.9 4.5-.9 1.9 0 3.4.4 4.7 1.1 1.3.7 2.3 1.9 3.2 3.4l-2.4 1.5c-.3-.6-.7-1.1-1-1.5s-.8-.8-1.2-1.1c-.4-.3-.9-.5-1.5-.6-.5-.1-1.2-.2-1.9-.2-2.4 0-4.1.9-5.2 2.6-1.1 1.7-1.6 4.3-1.6 7.7 0 1.5.1 2.8.4 4 .2 1.2.6 2.3 1.2 3.1.5.9 1.2 1.5 2.1 2s2 .7 3.3.7c.7 0 1.4-.1 2-.2.6-.2 1.1-.4 1.5-.7.5-.3.9-.7 1.2-1.1.4-.4.7-.9 1-1.4l2.4 1.5zm16.3 3.7c-.6.2-1.3.4-2 .5-.7.1-1.5.2-2.3.2-1.2 0-2.2-.1-3-.4-.8-.3-1.4-.8-1.9-1.4-.5-.6-.8-1.5-1-2.5-.2-1-.3-2.2-.3-3.6V135h-3.6v-2.5h3.6v-6.6h2.9v6.6h6.3v2.5h-6.3v13.8c0 1.1.1 2 .2 2.8.1.7.3 1.3.6 1.8.3.4.6.8 1.1.9.5.2 1 .3 1.7.3.5 0 1.1-.1 1.7-.2.6-.1 1.2-.3 1.6-.4l.7 2.3z" class="st0"/><path fill="#7929d2" d="M77.5 106.1l-19 8 16.1 8.1z"/><path fill="#9454db" d="M36.5 116.7l-20.3-7.6 4.7 15.9z"/><path fill="#af7fe4" d="M46.1 102.4l12.4 11.7-22 2.6zM18.7 91.5l-2.5 17.6L.9 93.8z"/><linearGradient id="SVGID_1_" x1="98.997" x2="156.487" y1="-11889.943" y2="-11889.943" gradientTransform="translate(0 11973)" gradientUnits="userSpaceOnUse"><stop offset="0" stop-color="#7929d2"/><stop offset="1" stop-color="#0070c5"/></linearGradient><path fill="url(#SVGID_1_)" d="M77.5 106.1l50-46L150 89.8z"/><linearGradient id="SVGID_00000166662598484977865940000011954277451638399663_" x1="102.91" x2="102.428" y1="-11940.59" y2="-11883.761" gradientTransform="translate(0 11973)" gradientUnits="userSpaceOnUse"><stop offset="0" stop-color="#00aeff"/><stop offset="1" stop-color="#9454db"/></linearGradient><path fill="url(#SVGID_00000166662598484977865940000011954277451638399663_)" d="M77.5 106.1l21.3-67.7 28.7 21.7z"/><linearGradient id="SVGID_00000055676023537629387580000009584435321937802902_" x1="134.554" x2="122.28" y1="-11917.025" y2="-11938.284" gradientTransform="translate(0 11973)" gradientUnits="userSpaceOnUse"><stop offset="0" stop-color="#66a9dc"/><stop offset="1" stop-color="#b1e4fa"/></linearGradient><path fill="url(#SVGID_00000055676023537629387580000009584435321937802902_)" d="M98.8 38.4H150l-22.5 21.7z"/><linearGradient id="SVGID_00000171693567885542448930000008583082747650159254_" x1="137.284" x2="144.258" y1="-11933.683" y2="-11885.449" gradientTransform="translate(0 11973)" gradientUnits="userSpaceOnUse"><stop offset="0" stop-color="#00aeff"/><stop offset="1" stop-color="#9454db"/></linearGradient><path fill="url(#SVGID_00000171693567885542448930000008583082747650159254_)" d="M150 89.8V38.4l-22.5 21.7z"/><path d="M98.6 156.5v-5.4l14.4-20.2H99.3V125h21.4v5.2l-14.6 20.4H121v5.9H98.6zm31.4-10.4c.1 2.1.6 3.6 1.5 4.6.9.9 2.4 1.4 4.4 1.4 1 0 2.1-.1 3-.4.9-.3 1.7-.9 2.3-1.7l4.4 3.1c-.9 1.4-2.2 2.4-3.7 3.1-1.5.7-3.6 1-6.2 1-3.9 0-6.9-1-8.8-3.1-1.9-2.1-2.9-5.2-2.9-9.3 0-8.5 3.8-12.8 11.5-12.8 3.4 0 6 1 7.8 2.9 1.8 1.9 2.7 4.7 2.7 8.4v2.9h-16zm10-4.1c0-3.6-1.6-5.4-4.7-5.4-.9 0-1.8.1-2.6.5-.7.4-1.2.9-1.6 1.6-.5 1-.8 2.2-.9 3.3h9.8zm32.2 2.4c0 2.3-.3 4.6-1.2 6.8-.6 1.8-1.8 3.3-3.3 4.5-1.5 1.1-3.3 1.6-5.2 1.5-2.5.1-4.9-.8-6.7-2.5v10.7H150v-32.8h5.4v2.3c1-.9 2.2-1.6 3.4-2.2 1.3-.6 2.7-.8 4.1-.8 3 0 5.3 1.1 6.9 3.2 1.6 2.2 2.4 5.2 2.4 9.3zm-6 .1c0-2.3-.4-4.1-1.2-5.4-.7-1.3-2.1-2-3.6-1.9-1 0-2 .2-2.9.7-.9.4-1.8 1-2.6 1.6v10.4c.7.6 1.5 1.1 2.3 1.5.9.4 1.8.6 2.8.6 1.5 0 3-.7 3.8-2.1.9-1.3 1.4-3.2 1.4-5.4zm25.6 12v-13.1c0-2.5-.2-4.2-.7-5-.5-.9-1.5-1.3-2.5-1.2-1.7 0-3.8 1.2-6.3 3.5v15.9h-5.9v-33.8h5.9v13.1c1.1-1.2 2.5-2.1 4-2.8 1.3-.6 2.7-.9 4.1-1 2.7 0 4.5.7 5.6 2.2 1.1 1.5 1.6 3.6 1.6 6.4v15.9l-5.8-.1zm8.6 3.2c1.1.4 2.3.6 3.4.7.8 0 1.7-.3 2.3-.8.7-.5 1.4-1.6 2.1-3.3l.6-1.4-8.6-22.2h6.1l5.6 15.2 5.8-15.2h6l-10.2 25.5c-.6 1.6-1.4 3.1-2.4 4.5-.7.9-1.7 1.7-2.8 2.1-1.3.5-2.6.7-4 .7-1.7 0-3.4-.2-5.1-.7l1.2-5.1zm40.4-21.3c-.8-.3-1.6-.5-2.4-.5-1.1 0-2.1.3-3.1.8-1.1.6-2.1 1.4-3 2.3v15.5h-5.9v-23.8h5.9v3.4c.9-1 2-2 3.2-2.7 1.2-.7 2.5-1.1 3.9-1.1.9-.1 1.8.1 2.6.5l-1.2 5.6zm7.8-5.3h-.6v1.2h-.7v-3.5h1.6c.6 0 1.1.4 1.2 1v.1c0 .5-.3.9-.8 1l.8 1.3h-.8l-.7-1.1zm.2-1.5h-.8v1h.8c.3 0 .5-.2.5-.4s-.1-.6-.5-.6c.1 0 0 0 0 0z" class="st0"/><path d="M248.7 136.4c-2.1 0-3.8-1.7-3.8-3.8 0-2.1 1.7-3.8 3.8-3.8 2.1 0 3.8 1.7 3.8 3.8 0 2.1-1.7 3.8-3.8 3.8zm0-7c-1.8 0-3.3 1.5-3.3 3.3 0 1.8 1.5 3.3 3.3 3.3 1.8 0 3.3-1.5 3.3-3.3 0-1.9-1.5-3.3-3.3-3.3z" class="st0"/><path d="M98.5 177.5h7.8c5.9 0 7.6 4.6 7.6 10.5s-1.7 11.1-7.6 11.1h-7.8v-21.6zm7.8 19.8c4.5 0 5.7-4.7 5.7-9.3s-1.2-8.8-5.7-8.8h-5.9v18.1h5.9zm10.5-6c0-6 2.6-8.1 6.4-8.1 4 0 6.1 2.1 6.1 7.3l-.1 1.5h-10.5c0 3.7 1.1 5.7 4.3 5.7 1.6 0 4.2-.2 5.7-.3l.1 1.5c-1.5.2-4.1.4-5.9.4-4.7 0-6.1-2.8-6.1-8zm10.6-.8c0-4.2-1.3-5.7-4.2-5.7-2.8 0-4.5 1.6-4.6 5.7h8.8zm3.6-7h2l3.9 13.9h1.2l4.1-13.9h1.9l-4.6 15.5h-4l-4.5-15.5zm14.9 7.8c0-6 2.6-8.1 6.4-8.1 4 0 6.1 2.1 6.1 7.3l-.1 1.5h-10.5c0 3.7 1.1 5.7 4.3 5.7 1.6 0 4.2-.2 5.7-.3l.1 1.5c-1.5.2-4.1.4-5.9.4-4.7 0-6.1-2.8-6.1-8zm10.6-.8c0-4.2-1.3-5.7-4.2-5.7-2.8 0-4.5 1.6-4.6 5.7h8.8zm5.3-13.9h1.8V199h-1.8v-22.4zm5.4 14.5c0-5.5 1.7-7.8 6.5-7.8s6.5 2.3 6.5 7.8c0 5.9-1.3 8.3-6.5 8.3s-6.5-2.5-6.5-8.3zm11 0c0-4.7-1-6.2-4.6-6.2s-4.6 1.5-4.6 6.2c0 4.8.6 6.7 4.6 6.7s4.6-2 4.6-6.7zm5.3-7.6h1.8v1.2c1-.6 3.1-1.5 4.9-1.5 3.9 0 5.5 2.4 5.5 7.8 0 6-1.9 8.3-6.7 8.3-1.5 0-3-.2-3.7-.4v7.1h-1.8v-22.5zm10.3 7.6c0-4.5-1.4-6.2-3.8-6.2-1.7 0-3.7.8-4.7 1.4v11c.7.1 2.2.4 3.7.4 3.6 0 4.8-1.9 4.8-6.6zm4.6.2c0-6 2.6-8.1 6.4-8.1 4 0 6.1 2.1 6.1 7.3l-.1 1.5h-10.5c0 3.7 1.1 5.7 4.3 5.7 1.6 0 4.2-.2 5.7-.3l.1 1.5c-1.5.2-4.1.4-5.9.4-4.7 0-6.1-2.8-6.1-8zm10.6-.8c0-4.2-1.3-5.7-4.2-5.7-2.8 0-4.5 1.6-4.6 5.7h8.8zm5.1-7h1.8v2.2c1.1-.8 3.5-2.1 5.8-2.5v1.9c-2.2.4-4.6 1.5-5.8 2.3V199h-1.8v-15.5zm15.4 15.2l.2-1.6c1.8.2 4.8.5 6.4.5 3.2 0 4.9-1.4 4.9-4.7 0-2.7-1.4-3.4-5-4.1-4.4-.8-6.7-1.7-6.7-6 0-4.1 2.7-5.6 6.8-5.6 1.8 0 4.7.3 6.3.6l-.2 1.6c-1.9-.2-4.8-.5-6.1-.5-3.3 0-5 1.1-5 3.8 0 3.2 1.7 3.7 5.5 4.4 4.2.8 6.2 1.9 6.2 5.7 0 4.8-2.5 6.5-6.7 6.5-1.6 0-4.7-.4-6.6-.6zm16.6-7.1v-8h1.8v8c0 4.6.4 6.1 3.4 6.1 2 0 3.7-.7 4.7-1.3v-12.8h1.8V199H256v-1.1c-1.2.7-2.8 1.5-5.1 1.5-3.9-.1-4.8-2.2-4.8-7.8zm15.8-8.1h1.8v1.1c1-.6 3-1.5 4.7-1.5 2.2 0 3.3.5 4.1 1.6 1.2-.7 3.5-1.6 5.6-1.6 4.2 0 5.2 1.9 5.2 7.6v8.1h-1.8v-8c0-4.6-.5-6.1-3.5-6.1-1.9 0-3.8.7-4.7 1.3.3 1.1.4 2.8.4 4.8v8h-1.8v-8c0-4.6-.5-6.1-3.5-6.1-1.8 0-3.6.7-4.5 1.3v13h-1.8v-15.5zm25.2 0h1.8v1.1c1-.6 3-1.5 4.7-1.5 2.2 0 3.3.5 4.1 1.6 1.2-.7 3.5-1.6 5.6-1.6 4.2 0 5.2 1.9 5.2 7.6v8.1h-1.8v-8c0-4.6-.5-6.1-3.5-6.1-1.9 0-3.8.7-4.7 1.3.3 1.1.4 2.8.4 4.8v8H297v-8c0-4.6-.5-6.1-3.5-6.1-1.8 0-3.6.7-4.5 1.3v13h-1.8v-15.5zm25.3-6.2h1.8v2.3h-1.8v-2.3zm0 6.2h1.8V199h-1.8v-15.5zm6.7 10.2v-8.6h-2.3v-1.6h2.3v-4.9h1.8v4.9h5.2v1.6h-5.2v7.7c0 3.9.2 4.9 2.5 4.9.6 0 2-.1 2.8-.2l.1 1.5c-.9.1-2.3.3-3.1.3-3.1 0-4.1-1.1-4.1-5.6zm15.3 3.7l6.4-6.7c2.5-2.6 4.1-4.3 4.1-6.8 0-2.9-1.6-3.8-4.8-3.8-1.6 0-4 .4-5.4.7l-.2-1.6c1.2-.3 3.7-.8 5.9-.8 4.2 0 6.4 1.5 6.4 5.4 0 3-1.5 4.8-4.2 7.6l-5.9 6.2h10.7v1.6h-13v-1.8zm15.9-8.2c0-8.6 2.7-10.9 7.3-10.9 4.8 0 7.3 2.3 7.3 10.9 0 7.8-2.8 10.2-7.3 10.2s-7.3-2.3-7.3-10.2zm12.7 0c0-7.3-1.7-9.2-5.4-9.2-3.6 0-5.4 1.9-5.4 9.3 0 6.7 2 8.4 5.4 8.4 3.4-.1 5.4-1.8 5.4-8.5zm4.8 8.2l6.4-6.7c2.5-2.6 4.1-4.3 4.1-6.8 0-2.9-1.6-3.8-4.8-3.8-1.6 0-4 .4-5.4.7l-.2-1.6c1.2-.3 3.7-.8 5.9-.8 4.2 0 6.4 1.5 6.4 5.4 0 3-1.5 4.8-4.2 7.6l-5.9 6.2h10.7v1.6h-13v-1.8zm16.7 0l6.4-6.7c2.5-2.6 4.1-4.3 4.1-6.8 0-2.9-1.6-3.8-4.8-3.8-1.6 0-4 .4-5.4.7l-.2-1.6c1.2-.3 3.7-.8 5.9-.8 4.2 0 6.4 1.5 6.4 5.4 0 3-1.5 4.8-4.2 7.6l-5.9 6.2h10.7v1.6h-13v-1.8z" class="st0"/></svg>